<!DOCTYPE svg PUBLIC "-//W3C//DTD SVG 1.1//EN" "http://www.w3.org/Graphics/SVG/1.1/DTD/svg11.dtd">
<!-- Uploaded to: SVG Repo, www.svgrepo.com, Transformed by: SVG Repo Mixer Tools -->
<svg fill="#2c62d8" height="64px" width="64px" version="1.1" id="Layer_1" xmlns="http://www.w3.org/2000/svg" xmlns:xlink="http://www.w3.org/1999/xlink" viewBox="0 0 512.009 512.009" xml:space="preserve" stroke="#2c62d8">
<g id="SVGRepo_bgCarrier" stroke-width="0"/>
<g id="SVGRepo_tracerCarrier" stroke-linecap="round" stroke-linejoin="round"/>
<g id="SVGRepo_iconCarrier"> <g> <g> <g> <path d="M256.004,0c-141.163,0-256,114.837-256,256c0,33.493,6.635,65.408,18.389,94.741l6.336-9.429l99.605-168.96 c3.755-6.379,10.517-10.347,17.92-10.517c7.936,0.384,14.315,3.52,18.325,9.707l23.147,35.584l53.888-91.435 c3.947-6.677,11.52-10.795,18.944-10.475c7.744,0.192,14.805,4.587,18.368,11.477l75.093,144.405l33.259-56.384 c3.733-6.379,10.517-10.347,17.899-10.517c7.445,0.064,14.336,3.541,18.368,9.728l76.139,117.12l5.504,8.235 c6.955-23.232,10.816-47.808,10.816-73.28C512.004,114.837,397.167,0,256.004,0z"/> <path d="M254.833,170.519L103.324,427.415L88.71,449.346c34.325,29.739,76.544,50.411,123.115,58.56 c3.008-7.595,5.461-14.059,6.613-17.749c-0.021-3.797,0.96-7.595,2.965-10.944l103.061-174.805L254.833,170.519z"/> <path d="M143.612,223.667L60.817,364.062L40.7,393.971c5.419,8.405,11.157,16.597,17.472,24.299l9.045-13.525l92.309-156.587 L143.612,223.667z"/> <path d="M402.528,256.051L260.896,496.222c-0.853,4.011-2.432,9.067-4.907,15.787h0.021c97.472,0,182.357-54.805,225.579-135.189 l-21.547-32.32L402.528,256.051z"/> </g> </g> </g> </g>
</svg>