<?xml version="1.0" ?><!-- Uploaded to: SVG Repo, www.svgrepo.com, Generator: SVG Repo Mixer Tools -->
<svg fill="#000000" width="800px" height="800px" viewBox="0 0 64 64" data-name="Layer 1" id="Layer_1" xmlns="http://www.w3.org/2000/svg"><path d="M40,19H16v5H40ZM24,23H18V21h6Zm3,0H25V21h2Zm3,0H28V21h2Z"/><path d="M19.217,49.067A4.952,4.952,0,0,1,24.574,52H40V47H17.271A6.034,6.034,0,0,1,19.217,49.067ZM28,49h2v2H28Zm-3,0h2v2H25Z"/><path d="M40,40H16v5H40ZM24,44H18V42h6Zm3,0H25V42h2Zm3,0H28V42h2Z"/><path d="M40,26H16v5H40ZM24,30H18V28h6Zm3,0H25V28h2Zm3,0H28V28h2Z"/><path d="M25.039,54l-1.068.089a1,1,0,0,1-1.057-.769A2.945,2.945,0,0,0,19,51.188a1,1,0,0,1-1.27-.591,3.982,3.982,0,0,0-7.657.708,1,1,0,0,1-1.2.8A3.995,3.995,0,1,0,8,60H25a3,3,0,0,0,.039-6Z"/><path d="M40,33H16v5H40ZM24,37H18V35h6Zm3,0H25V35h2Zm3,0H28V35h2Z"/><path d="M8,35h6V23a3.985,3.985,0,0,0-3.927,3.305,1,1,0,0,1-1.2.8A3.995,3.995,0,1,0,8,35Z"/><path d="M40,12H16v5H40ZM24,16H18V14h6Zm3,0H25V14h2Zm3,0H28V14h2Z"/><path d="M45,10l-1.029.089a1,1,0,0,1-1.057-.769A2.945,2.945,0,0,0,39,7.188,1,1,0,0,1,37.73,6.6a3.982,3.982,0,0,0-7.657.708,1,1,0,0,1-1.2.8A3.914,3.914,0,0,0,24.543,10H41a1,1,0,0,1,1,1v5h3a3,3,0,0,0,0-6Z"/><path d="M12,8h7V6H11a1,1,0,0,0-1,1v9h2Z"/><path d="M44,56H37v2h8a1,1,0,0,0,1-1V48H44Z"/><path d="M57.858,7H62V5H57.858A3.992,3.992,0,1,0,53,9.858v4.284a3.981,3.981,0,0,0,0,7.716v6.284a3.981,3.981,0,0,0,0,7.716v6.284a3.981,3.981,0,0,0,0,7.716v4.284A3.992,3.992,0,1,0,57.858,59H62V57H57.858A4,4,0,0,0,55,54.142V49.858A4,4,0,0,0,57.858,47H62V45H57.858A4,4,0,0,0,55,42.142V35.858A4,4,0,0,0,57.858,33H62V31H57.858A4,4,0,0,0,55,28.142V21.858A4,4,0,0,0,57.858,19H62V17H57.858A4,4,0,0,0,55,14.142V9.858A4,4,0,0,0,57.858,7ZM52,6a2,2,0,1,1,2,2A2,2,0,0,1,52,6Zm4,52a2,2,0,1,1-2-2A2,2,0,0,1,56,58Zm0-12a2,2,0,1,1-2-2A2,2,0,0,1,56,46Zm0-14a2,2,0,1,1-2-2A2,2,0,0,1,56,32Zm0-14a2,2,0,1,1-2-2A2,2,0,0,1,56,18Z"/><rect height="2" width="2" x="44" y="44"/><rect height="2" width="2" x="10" y="18"/></svg>